<svg width="430" height="512" viewBox="0 0 430 512" fill="none" xmlns="http://www.w3.org/2000/svg">
<path d="M257.053 72.1653C265.822 87.5122 288.47 79.6306 297.49 72.1653C302.156 68.3037 303.09 57.8566 296.868 48.2139C276.028 37.949 297.49 30.128 285.359 21.4629C278.827 16.7971 274.499 19.2894 271.673 6.22114C271.99 15.3218 274.472 32.9721 264.207 37.949C252.698 53.5018 254.565 67.8105 257.053 72.1653Z" fill="currentColor"/>
<path d="M297.49 99.2273C297.49 85.2298 257.053 83.9855 257.053 99.2273V138.42V150.552V198.766C257.053 208.097 297.49 212.141 297.49 198.766V162.372V142.775V99.2273Z" fill="currentColor"/>
<path d="M172.134 99.2273C172.134 78.3864 132.008 78.0755 132.008 99.2273V144.953V162.372V198.766C132.008 214.941 172.134 213.696 172.134 198.766V149.93V138.42V99.2273Z" fill="currentColor"/>
<path d="M109.612 142.775C109.612 125.356 71.974 124.112 71.974 142.775V166.416V187.567V262.532C71.974 278.707 109.612 280.885 109.612 262.532V170.148V153.351V142.775Z" fill="currentColor"/>
<path fill-rule="evenodd" clip-rule="evenodd" d="M262.03 512L258.511 390.377L429.379 403.13V240.447C429.379 193.789 365.923 162.372 297.49 142.775V162.372C327.663 155.84 425.024 216.807 382.098 236.714L199.507 224.894C178.044 224.894 175.867 243.869 189.554 272.175L228.125 333.453C235.59 347.762 230.302 356.472 209.772 353.05C170.579 343.718 156.893 344.962 153.16 374.824L148.805 419.305C146.006 445.434 109.612 448.233 107.435 419.305C110.162 357.363 104.955 337.028 87.5269 318.211C75.9382 307.529 79.7504 349.443 66.3749 353.05C50.4743 357.338 39.0019 347.451 40.2461 330.965C40.2461 318.211 43.0456 311.679 37.7577 305.769C-1.95269 267.892 32.7809 202.809 71.974 187.567V166.416C34.2363 182.802 18.5524 197.318 4.47458 236.714C-7.34529 274.041 12.562 334.386 4.47458 416.194C6.96314 455.077 96.2365 510.445 187.376 512H262.03ZM201.996 243.869L257.053 339.985L257.656 360.826L406.361 374.824V262.532L201.996 243.869Z" fill="currentColor"/>
<path d="M257.053 138.42H172.134V149.93L257.053 150.552V138.42Z" fill="currentColor"/>
<path d="M132.008 144.953L109.612 153.351V170.148L132.008 162.372V144.953Z" fill="currentColor"/>
<path d="M264.829 265.643C235.59 261.288 235.59 288.35 258.511 291.461L378.987 304.214C410.715 310.124 405.116 279.018 382.098 279.018L264.829 265.643Z" fill="currentColor"/>
<path d="M292.514 317.589C264.829 312.301 260.475 339.985 285.981 342.785L383.342 354.605C408.538 358.027 404.805 326.61 387.697 326.61L292.514 317.589Z" fill="currentColor"/>
<path d="M131.697 65.9441C140.466 81.291 163.114 73.4095 172.134 65.9441C176.8 62.0826 177.733 51.6355 171.512 41.9927C150.672 31.7278 172.134 23.9069 160.003 15.2418C153.471 10.5759 149.143 13.0683 146.317 0C146.634 9.10062 149.116 26.7509 138.851 31.7278C127.342 47.2807 129.209 61.5893 131.697 65.9441Z" fill="currentColor"/>
<path d="M69.1745 113.225C77.9438 128.572 100.591 120.69 109.612 113.225C114.278 109.363 115.211 98.9162 108.99 89.2734C88.1491 79.0085 109.612 71.1876 97.4808 62.5225C90.9486 57.8566 86.6209 60.3489 83.7943 47.2807C84.1117 56.3813 86.5938 74.0316 76.3289 79.0085C64.8198 94.5614 66.6861 108.87 69.1745 113.225Z" fill="currentColor"/>
</svg>
