<svg width="512" height="386" viewBox="0 0 512 386" fill="none" xmlns="http://www.w3.org/2000/svg">
<path d="M16.9187 128.272V24.2318C16.9187 10.7304 23.2722 0.405762 39.9506 0.405762H187.672C196.408 0.405762 209.116 3.58257 209.116 26.6144H467.232C478.35 26.6144 489.469 36.1449 489.469 46.4695V84.5912H251.208C243.266 84.5912 228.691 86.3136 217.058 108.417C210.337 120.632 199.585 128.272 189.261 128.272H16.9187Z" fill="#ECAD1D"/>
<path d="M43.9216 65.5304H464.055V318.087H43.9216V65.5304Z" fill="#D9D9D9"/>
<path d="M16.919 137.009H185.29C196.409 137.009 209.116 133.038 217.852 115.565C225.689 99.8922 238.501 93.3275 250.414 93.3275H493.44C506.148 93.3275 513.603 99.4454 511.707 116.359L482.322 367.327C480.733 377.652 473.585 385.594 460.084 385.594H43.1276C35.9797 385.594 26.4493 380.035 24.0668 367.327L0.240711 159.246C-1.34774 146.539 5.00585 137.009 16.919 137.009Z" fill="#ECAD1D"/>
</svg>
