<svg width="512" height="500" viewBox="0 0 512 500" fill="none" xmlns="http://www.w3.org/2000/svg">
<g clip-path="url(#clip0_60_381)">
<path fill-rule="evenodd" clip-rule="evenodd" d="M256 0.31543C114.56 0.31543 0 114.875 0 256.315C0 369.596 73.28 465.276 175.04 499.196C187.84 501.436 192.64 493.756 192.64 487.036C192.64 480.956 192.32 460.796 192.32 439.356C128 451.196 111.36 423.676 106.24 409.276C103.36 401.916 90.88 379.195 80 373.116C71.04 368.315 58.24 356.476 79.68 356.156C99.84 355.836 114.24 374.716 119.04 382.396C142.08 421.116 178.88 410.236 193.6 403.516C195.84 386.876 202.56 375.676 209.92 369.276C152.96 362.876 93.44 340.796 93.44 242.875C93.44 215.035 103.36 191.995 119.68 174.075C117.12 167.675 108.16 141.435 122.24 106.235C122.24 106.235 143.68 99.5155 192.64 132.475C213.12 126.715 234.88 123.835 256.64 123.835C278.4 123.835 300.16 126.715 320.64 132.475C369.6 99.1955 391.04 106.235 391.04 106.235C405.12 141.435 396.16 167.675 393.6 174.075C409.92 191.995 419.84 214.715 419.84 242.875C419.84 341.116 360 362.876 303.04 369.276C312.32 377.276 320.32 392.636 320.32 416.636C320.32 450.876 320 478.396 320 487.036C320 493.756 324.8 501.756 337.6 499.196C438.72 465.276 512 369.276 512 256.315C512 114.875 397.44 0.31543 256 0.31543Z" fill="currentColor"/>
</g>
<defs>
<clipPath id="clip0_60_381">
<rect width="512" height="499.369" fill="currentColor" transform="translate(0 0.31543)"/>
</clipPath>
</defs>
</svg>
