<svg width="512" height="512" viewBox="0 0 512 512" fill="none" xmlns="http://www.w3.org/2000/svg">
<g clip-path="url(#clip0_60_408)">
<path fill-rule="evenodd" clip-rule="evenodd" d="M434.688 0.000488281H77.314C34.6145 0.000488281 0 34.6178 0 77.3207V434.682C0 477.385 34.6145 512 77.314 512H434.686C477.385 512 512 477.383 512 434.682V77.3229C512.002 34.62 477.385 0.000488281 434.688 0.000488281ZM154.919 198.242V429.788H77.9692V198.242H154.919ZM159.991 126.623C159.991 148.845 143.274 166.626 116.458 166.626H115.95C90.1175 166.626 73.4233 148.845 73.4233 126.623C73.4233 103.907 90.628 86.6186 116.962 86.6186C143.274 86.6186 159.493 103.907 159.991 126.623ZM274.468 429.788H197.505C197.505 429.788 198.526 219.965 197.505 198.242H274.468V231.004C284.694 215.227 303.005 192.805 343.815 192.805C394.452 192.805 432.409 225.897 432.409 297.018V429.788H355.461V305.911C355.461 274.789 344.33 253.549 316.479 253.549C295.226 253.549 282.554 267.865 277.005 281.699C274.969 286.643 274.468 293.56 274.468 300.484V429.788Z" fill="currentColor"/>
</g>
<defs>
<clipPath id="clip0_60_408">
<rect width="512" height="511.999" fill="currentColor" transform="translate(0 0.000488281)"/>
</clipPath>
</defs>
</svg>
