<svg width="512" height="504" viewBox="0 0 512 504" fill="none" xmlns="http://www.w3.org/2000/svg">
<path fill-rule="evenodd" clip-rule="evenodd" d="M224.417 379.076C243.945 406.165 272.767 401.337 287.625 379.076C390.078 225.57 461.968 140.135 349.444 33.5149C302.559 -8.85542 214.693 -11.6338 160.514 33.5149C52.9677 134.775 121.269 235.989 224.417 379.076ZM255.326 209.247C289.276 209.247 316.798 181.726 316.798 147.776C316.798 113.826 289.276 86.3041 255.326 86.3041C221.377 86.3041 193.855 113.826 193.855 147.776C193.855 181.726 221.377 209.247 255.326 209.247Z" fill="currentColor"/>
<path d="M164.334 352.334L138.287 310.658C38.3383 333.828 20.2057 352.681 4.92484 379.076C-3.37645 393.415 -6.53612 433.602 40.3492 459.649C167.807 521.121 373.06 514.522 468.22 459.649C505.459 435.941 522.051 409.985 505.728 379.076C488.305 346.083 448.076 327.676 373.755 310.658L347.36 352.334C414.98 364.433 460.232 381.507 466.83 401.303C457.499 426.63 399.588 446.129 327.217 453.745C281.974 458.506 229.599 457.588 184.477 453.745C133.772 449.427 54.839 428.047 44.5167 400.956C59.9455 375.992 90.1004 366.094 164.334 352.334Z" fill="currentColor"/>
</svg>
