<svg width="512" height="126" viewBox="0 0 512 126" fill="none" xmlns="http://www.w3.org/2000/svg">
<path d="M41.4618 0.320801V12.9704C29.2828 14.4473 21.7857 22.4178 21.7857 29.4833V53.3759C21.7857 56.9635 17.9335 58.9608 15.4612 62.5113C17.557 66.3772 21.1316 69.7705 21.1316 72.7008L20.3802 95.8907C20.3802 103.261 29.5843 109.446 41.4618 109.945V122.946C28.953 122.483 10.893 112.055 10.893 103.972C10.7281 89.7155 10.7676 83.3533 10.893 72.7008C10.9515 67.7319 4.25398 66.4905 0 62.5113C4.25398 58.9437 10.893 56.8665 10.893 53.3759V26.321C10.893 16.9961 28.0076 2.49162 41.4618 0.320801Z" fill="currentColor"/>
<path d="M470.538 125.68V113.03C482.717 111.553 490.214 103.583 490.214 96.5171V72.6244C490.214 69.0368 494.066 67.0395 496.539 63.489C494.443 59.6232 490.868 56.2298 490.868 53.2995L491.62 30.1096C491.62 22.739 482.416 16.5541 470.538 16.0552V3.05476C483.047 3.51774 501.107 13.945 501.107 22.0283C501.272 36.2848 501.232 42.647 501.107 53.2995C501.049 58.2684 507.746 59.5098 512 63.489C507.746 67.0566 501.107 69.1338 501.107 72.6244V99.6793C501.107 109.004 483.992 123.509 470.538 125.68Z" fill="currentColor"/>
<path d="M85.9566 21.4055C90.5999 21.4055 94.6815 22.2293 98.2014 23.8769C101.796 25.4497 104.567 27.8462 106.514 31.0666C108.536 34.212 109.547 38.2562 109.547 43.1991C109.547 46.1198 109.061 48.9657 108.087 51.7367C107.188 54.4328 105.728 56.8668 103.706 59.0387C101.759 61.2106 99.2124 62.9331 96.067 64.2062C92.9215 65.4794 89.1769 66.116 84.8332 66.116H72.3638V100.716H68.5443V21.4055H85.9566ZM84.8332 62.5212C88.9523 62.5212 92.3598 61.8846 95.056 60.6114C97.8269 59.2634 99.9614 57.6157 101.459 55.6686C103.032 53.6465 104.155 51.5121 104.829 49.2653C105.503 47.0185 105.84 44.959 105.84 43.0867C105.84 40.3157 105.354 37.8443 104.38 35.6724C103.481 33.4257 102.171 31.5159 100.448 29.9432C98.8005 28.3705 96.741 27.1722 94.2696 26.3484C91.873 25.5246 89.177 25.1127 86.1813 25.1127H72.3638V62.5212H84.8332Z" fill="currentColor"/>
<path d="M115.781 100.716L149.033 17.923H149.37L182.51 100.716H178.241L148.022 24.1016L150.606 22.8659L119.601 100.716H115.781ZM130.722 69.1491H167.681L168.58 72.7439H129.936L130.722 69.1491Z" fill="currentColor"/>
<path d="M195.205 21.4055H199.923L251.486 100.716H246.768L195.205 21.4055ZM194.081 100.716L220.593 59.2634L222.84 62.2965L198.687 100.716H194.081ZM222.278 58.0276L245.42 21.4055H249.913L224.637 60.9484L222.278 58.0276Z" fill="currentColor"/>
<path d="M269.743 21.4055H273.562V100.716H269.743V21.4055Z" fill="currentColor"/>
<path d="M356.088 95.6608C354.291 96.7842 352.269 97.7952 350.022 98.694C347.775 99.5927 345.341 100.304 342.72 100.828C340.174 101.353 337.477 101.615 334.632 101.615C328.565 101.615 323.061 100.566 318.118 98.4693C313.25 96.3723 309.056 93.489 305.536 89.8193C302.016 86.0747 299.283 81.8058 297.336 77.0127C295.463 72.1448 294.527 67.0147 294.527 61.6225C294.527 55.8558 295.538 50.501 297.56 45.5581C299.657 40.5404 302.54 36.1592 306.21 32.4146C309.88 28.67 314.149 25.7492 319.017 23.6523C323.885 21.5553 329.127 20.5068 334.744 20.5068C338.713 20.5068 342.458 21.0685 345.978 22.1919C349.572 23.2404 352.905 24.6633 355.976 26.4607L354.291 29.8308C351.52 28.1832 348.487 26.8352 345.191 25.7867C341.896 24.7382 338.414 24.2139 334.744 24.2139C329.801 24.2139 325.12 25.1875 320.702 27.1347C316.283 29.007 312.426 31.6657 309.131 35.1107C305.836 38.4809 303.215 42.4501 301.267 47.0185C299.395 51.5121 298.459 56.3426 298.459 61.5101C298.459 66.453 299.283 71.1337 300.93 75.5524C302.653 79.971 305.087 83.8654 308.232 87.2355C311.453 90.5307 315.272 93.152 319.691 95.0992C324.109 96.9715 329.09 97.9076 334.632 97.9076C338.376 97.9076 341.896 97.3834 345.191 96.3349C348.487 95.2864 351.482 93.9383 354.178 92.2907L356.088 95.6608Z" fill="currentColor"/>
<path d="M372.088 61.1731C372.088 55.6311 373.137 50.4261 375.234 45.5581C377.331 40.6153 380.214 36.2715 383.884 32.527C387.628 28.7824 391.935 25.8616 396.803 23.7646C401.745 21.5927 406.988 20.5068 412.53 20.5068C418.147 20.5068 423.389 21.5927 428.257 23.7646C433.125 25.8616 437.431 28.7824 441.176 32.527C444.92 36.2715 447.841 40.6153 449.938 45.5581C452.11 50.4261 453.196 55.6311 453.196 61.1731C453.196 66.7151 452.11 71.9575 449.938 76.9004C447.841 81.7684 444.92 86.0747 441.176 89.8193C437.431 93.489 433.125 96.3723 428.257 98.4693C423.389 100.566 418.147 101.615 412.53 101.615C406.988 101.615 401.745 100.641 396.803 98.694C391.935 96.6719 387.628 93.8634 383.884 90.2686C380.214 86.5989 377.331 82.2926 375.234 77.3498C373.137 72.4069 372.088 67.0147 372.088 61.1731ZM376.02 61.2854C376.02 66.3781 376.956 71.1337 378.829 75.5524C380.701 79.971 383.285 83.8654 386.58 87.2355C389.95 90.6056 393.844 93.2269 398.263 95.0992C402.682 96.9715 407.362 97.9076 412.305 97.9076C417.473 97.9076 422.266 96.9715 426.684 95.0992C431.178 93.2269 435.072 90.6056 438.367 87.2355C441.738 83.8654 444.396 79.971 446.343 75.5524C448.291 71.0588 449.264 66.2658 449.264 61.1731C449.264 56.0805 448.291 51.3248 446.343 46.9062C444.471 42.4127 441.85 38.4809 438.48 35.1107C435.11 31.7406 431.178 29.0819 426.684 27.1347C422.266 25.1875 417.548 24.2139 412.53 24.2139C407.362 24.2139 402.532 25.225 398.038 27.2471C393.62 29.1943 389.763 31.8904 386.467 35.3354C383.172 38.7804 380.588 42.7497 378.716 47.2432C376.919 51.6618 376.02 56.3426 376.02 61.2854Z" fill="currentColor"/>
</svg>
