<svg width="512" height="500" viewBox="0 0 512 500" fill="none" xmlns="http://www.w3.org/2000/svg">
<path d="M288.105 338.072C225.896 293.016 191.313 255.877 162.127 212.057C152.568 193.136 154.288 187.426 167.544 175.18C191.07 150.272 201.242 126.208 178.421 80.6853C136.284 8.41323 92.7599 -15.2552 45.0978 26.7378C0.363426 63.8803 -6.47125 82.2142 4.74952 138.07C24.769 247.583 163.032 408.639 315.251 473.785C383.409 500.972 427.618 500.504 458.397 473.785C523.579 421.115 523.123 376.386 489.974 344.56C417.766 275.234 364.945 302.121 325.724 344.56C318.735 350.668 304.481 348.176 288.105 338.072Z" fill="currentColor"/>
</svg>
