<svg width="512" height="512" viewBox="0 0 512 512" fill="none" xmlns="http://www.w3.org/2000/svg">
<path d="M24.668 452.437V510.797C123.338 495.756 118.525 424.16 162.445 413.932V348.353C98.0687 355.572 87.2391 452.437 24.668 452.437Z" fill="#1B935C"/>
<path d="M187.112 348.353V182.9H380.24V348.353H324.287V276.757C324.287 226.82 243.065 222.609 243.065 276.757V348.353H187.112Z" fill="#EBAE1E"/>
<path fill-rule="evenodd" clip-rule="evenodd" d="M187.112 376.63V512H216.593V459.657H349.556V512H378.435V473.495L416.339 512H487.333V465.072L399.493 376.63H187.112ZM349.556 426.566H216.593V401.297H349.556V426.566ZM416.339 441L378.435 401.297V436.193L400 463.5C406 463.5 416.339 464.47 416.339 464.47V441ZM461.462 483.723H430.778V450.632H441.5L461.462 473.495V483.723Z" fill="white"/>
<path d="M269.538 348.353V285.781C269.538 259.911 297.213 261.716 297.213 285.781V348.353H269.538Z" fill="#00AEA4"/>
<path d="M135.972 155.224L280.367 49.9365L425.965 155.224H135.972Z" fill="#00AEA4"/>
<path d="M328.623 0H338.727V75.5L328.623 68.168V0Z" fill="white"/>
<path d="M415 5.41481L418.61 9.02468V52.3431L415 56.5546H349.28V5.41481H415Z" fill="#ECAD1D"/>
</svg>
