<svg width="402" height="512" viewBox="0 0 402 512" fill="none" xmlns="http://www.w3.org/2000/svg">
<path d="M373.251 473.534C301.081 521.591 108.52 527.954 29.1505 473.534C-0.220941 453.396 -5.00822 437.199 5.87556 382.947C15.949 340.416 42.7036 291.16 101.319 254.349C164.446 305.755 246.829 299.894 301.082 254.349C351.648 282.876 394.348 345.606 400.041 401.533C403.723 437.701 402.051 454.357 373.251 473.534Z" fill="currentColor"/>
<path d="M333.9 132.616C333.9 205.858 274.526 265.233 201.284 265.233C128.042 265.233 68.6675 205.858 68.6675 132.616C68.6675 59.3744 128.042 0 201.284 0C274.526 0 333.9 59.3744 333.9 132.616Z" fill="currentColor"/>
</svg>
