<svg width="426" height="512" viewBox="0 0 426 512" fill="none" xmlns="http://www.w3.org/2000/svg">
<g clip-path="url(#clip0_59_464)">
<path fill-rule="evenodd" clip-rule="evenodd" d="M398.552 67.7319C351.268 -0.374367 257.134 -20.3291 189.462 22.6169L70.1673 98.9653C37.6325 119.354 15.075 152.756 8.56805 190.497C2.92868 222.164 7.70045 254.699 22.8834 282.896C12.4722 298.512 5.53147 315.864 2.49488 334.084C-4.44588 372.692 4.66387 412.601 27.2214 444.268C74.9391 512.375 168.639 532.329 236.312 489.383L355.606 413.469C388.141 393.08 410.699 359.678 417.206 321.937C422.845 290.27 418.073 257.735 402.89 229.538C413.301 213.922 420.242 196.57 423.279 178.35C430.653 139.309 421.544 99.3991 398.552 67.7319ZM76.2405 413.035C98.798 445.57 139.141 460.753 177.749 450.775C186.425 448.173 194.667 444.702 202.042 439.93L321.336 364.016C340.857 351.869 354.739 331.481 358.643 308.923C362.547 285.498 357.341 261.639 343.46 242.552C320.902 210.018 280.559 194.835 241.951 204.812C233.275 207.415 225.033 210.885 217.659 215.657L172.11 244.721C169.941 246.023 167.338 246.89 164.735 247.758C153.023 250.795 140.876 246.457 133.936 236.479C130.031 230.84 128.296 223.465 129.598 216.525C130.899 209.584 134.803 203.944 140.876 200.04L259.737 124.126C261.906 122.824 264.509 121.957 267.112 121.089C278.824 118.052 290.97 122.39 297.911 132.368C301.382 137.573 303.117 144.08 302.683 150.153L302.249 154.491L306.587 155.793C323.505 160.998 339.122 168.807 353.437 179.218L359.51 183.556L361.679 176.615C362.981 172.711 363.848 169.241 364.716 165.336C368.62 141.911 363.415 118.052 349.533 98.9653C326.976 66.4305 286.632 51.2476 248.024 61.2249C239.348 63.8277 231.106 67.2981 223.732 72.0699L104.437 147.984C84.9165 160.131 71.0349 180.519 67.1307 203.077C62.7928 226.502 68.4321 250.361 81.8799 269.448C104.437 301.983 144.781 317.166 183.389 307.188C192.065 305.019 200.307 301.549 207.681 296.777L253.23 267.713C255.399 266.411 258.002 265.544 260.605 264.676C272.317 261.639 284.463 265.977 291.404 275.955C295.308 281.594 297.044 288.969 295.742 295.909C294.441 302.85 290.537 308.49 284.463 312.394L165.603 388.308C163.434 389.61 160.831 390.477 158.228 391.345C146.516 394.382 134.369 389.61 127.429 379.632C123.958 374.427 122.223 367.92 122.657 361.847L123.091 357.509L118.753 356.207C101.835 351.002 86.2178 343.193 71.9025 332.782L65.8294 328.444L63.6604 335.385C63.2267 337.337 62.793 339.18 62.3593 341.023L62.359 341.024L62.3586 341.026C61.9249 342.869 61.4913 344.712 61.0576 346.664C57.1534 370.089 62.359 393.948 76.2405 413.035Z" fill="white"/>
</g>
<defs>
<clipPath id="clip0_59_464">
<rect width="425.566" height="511.999" fill="white" transform="translate(0.216797 0.000488281)"/>
</clipPath>
</defs>
</svg>
